<svg id="Layer_1" xmlns="http://www.w3.org/2000/svg" version="1.1" viewBox="0 0 415.9 111.1"><defs><style>.st0{fill:none}.st1{fill:#ee3524}.st2{fill:#154475}</style></defs><path class="st2" d="M26.6 102.6h-5.7l-4-16.5-3.9 16.5H7.4L1 77.7h5.9l3.5 15.6.3 1.2 4-16.8H20l4.1 16.8.2-1.1 3.6-15.7h4.7l-6.2 24.9zm23.2-9.1c0 5.3-3.4 9.5-8.8 9.5s-8.7-4.3-8.7-9.6 3.1-9.6 8.7-9.6 8.8 4.3 8.8 9.7zM38 92.8c0 2.1 0 6.6 3 6.6s3.1-3.6 3.1-5.9 0-3.2-.6-4.6c-.4-1.2-1.3-1.7-2.5-1.7-2.8 0-3 3.4-3 5.5zm19.3-8.6v3.4c.5-2 1.6-4 3.9-3.8h.9v5.4c-4-.2-4.5 3.1-4.5 6.4v7.1h-5.3V84.2h4.9zm6.6-6.5h5.3v24.9h-5.3V77.7zm19.4 24.9v-2.9c-1 2-2.5 3.2-4.8 3.2-5.1 0-6.6-5.1-6.6-9.4s1.4-9.8 6.7-9.8 3.4.6 4.6 2.3v-8.4h5.3v24.9h-5zM83 92.4c0-1.8-.1-4.8-2.5-4.8s-3.1 4-3.1 6.2.3 5.4 2.9 5.4 1.9-.7 2.3-1.5c.4-.8.5-1.8.5-2.7v-2.5zm27.4 10.2h-4.7l-2.8-11.8-2.8 11.8h-4.5L90 84.1h5.6l2.9 11.3 2.8-11.3h4.8l2.6 11.3 3.1-11.3h4.2l-5.5 18.5zm12.5-20.1h-5.3v-5.2h5.3v5.2zm0 20.1h-5.3V84.1h5.3v18.5zm14.1 0v-2.9c-1 2-2.5 3.2-4.8 3.2-5.1 0-6.6-5.1-6.6-9.4s1.4-9.8 6.7-9.8 3.4.6 4.6 2.3v-8.4h5.3v24.9h-5zm-.3-10.2c0-1.8-.1-4.8-2.5-4.8s-3.1 4-3.1 6.2.3 5.4 2.9 5.4 1.9-.7 2.3-1.5.5-1.8.5-2.7v-2.5zm13.2 1.9v.9c0 2.2 1.2 4 3.5 4s3.2-1.2 3.2-2.9l4.9.4c0 .9-2.1 6.4-8.3 6.4s-9-3.9-9-9.3 3.2-9.9 8.9-9.9 5.2 1.2 6.7 3.3c1.5 2.1 1.9 4.7 1.9 7.2H150zm6.4-3.2c-.1-2-.7-3.9-3.1-3.9s-3.2 1.8-3.4 3.9h6.5zm33.8 6.6v4.9h-15.7V77.7h5.8v20h9.9zm18.1-4.2c0 5.3-3.4 9.5-8.8 9.5s-8.7-4.3-8.7-9.6 3.1-9.6 8.7-9.6 8.8 4.3 8.8 9.7zm-11.8-.7c0 2.1 0 6.6 3 6.6s3.1-3.6 3.1-5.9 0-3.2-.6-4.6c-.4-1.2-1.3-1.7-2.5-1.7-2.8 0-3 3.4-3 5.5zm19.3 2.2c-.5.3-.9.7-.9 1.3s.4 1.2 1 1.4c.9.3 2.9.3 3.9.4h2.3c3.2.3 6.8 1 6.8 5s-1.8 4.1-3.8 5c-2 .8-4.6 1-6.7 1s-9.4-.1-9.4-4.3 1.5-3 3.2-3.3c-1.4-.7-2.3-1.7-2.3-3.3s1.8-3.3 3.7-4.1c-2-.8-3.2-2.3-3.2-4.5 0-4.5 4.8-5.8 8.4-5.8s3.3.3 4.8.8c.4-2.8 1.4-3.6 4.1-3.6h1.5v3.6c-.5 0-.9-.2-1.4-.2-1 0-2 .5-2.1 1.6 1 1.1 1.4 2 1.4 3.6 0 4.4-4.6 5.6-8.1 5.6l-3-.2zm1.8 7.6h-2.8c-.6.1-1.2.6-1.2 1.4s.6 1.3 1.3 1.5c1.2.3 2.8.4 4 .4s5 .1 5-1.8-1.2-1.2-1.9-1.3l-4.3-.2zm-2-13.1c0 1.8 1.2 2.8 2.9 2.8s3.2-.9 3.2-2.8-1.5-2.7-3.2-2.7-2.9 1-2.9 2.8zm20-7h-5.3v-5.2h5.3v5.2zm0 20.1h-5.3V84.1h5.3v18.5zm13.7-12.9c-.5-1.8-1.8-2.5-3.6-2.5s-2.7.3-2.7 1.6c0 3.4 11-.5 11 7.9s-.9 3.6-2.4 4.8c-1.7 1.2-3.7 1.5-5.7 1.5-3.8 0-7.4-1.3-8.3-5.5l4.6-.7c.4 1.9 2.3 2.5 4 2.5s3.2-.4 3.2-1.7-1.1-1.5-2-1.6c-1.3-.1-4.3-.7-5.4-1.1-2.2-.8-3.6-2.7-3.6-5 0-4.5 3.9-6.2 7.8-6.2s5.9 1.4 7.2 4.8l-3.9 1.1zm5.4-1.3v-4.3h3.2l.5-5.4 4.6-.4v5.8h3.9v4.3h-3.9v7.3c0 2.1 0 3 2.5 2.9h1.7v4h-.4c-1 .2-2 .4-2.9.4-1.5 0-3.5-.2-4.7-1.2-1.5-1.2-1.5-3.4-1.5-5.3v-8.1h-3zm20.2-5.9h-5.3v-5.2h5.3v5.2zm0 20.1h-5.3V84.1h5.3v18.5zm14.7-11.4c0-1.7-.9-3.3-2.8-3.3-2.9 0-3.3 2.9-3.3 5.3s0 5.5 3.1 5.5 2.8-1.5 3-3.2l5 .3c-.4 4.6-3.8 7.3-8.3 7.3s-8.8-4-8.8-9.4 3.4-9.8 9.1-9.8 7.6 2.8 8 7.1l-5 .3zm17.9-1.5c-.5-1.8-1.8-2.5-3.6-2.5s-2.7.3-2.7 1.6c0 3.4 11-.5 11 7.9s-.9 3.6-2.4 4.8c-1.7 1.2-3.7 1.5-5.7 1.5-3.8 0-7.4-1.3-8.3-5.5l4.6-.7c.4 1.9 2.3 2.5 4 2.5s3.2-.4 3.2-1.7-1.1-1.5-2-1.6c-1.3-.1-4.3-.7-5.4-1.1-2.2-.8-3.6-2.7-3.6-5 0-4.5 3.9-6.2 7.8-6.2s5.9 1.4 7.2 4.8l-3.9 1.1zm26.8 4.2v-4.7h10.1v13.3h-2.6l-.8-2.9c-1.8 2.3-3.8 3.2-6.7 3.2-7.2 0-10.2-6.1-10.2-12.6s3.3-13 10.7-13 8.9 3.3 9.7 8.5l-5.5.8c-.2-2.5-1.6-4.6-4.3-4.6-4.1 0-4.7 5.3-4.7 8.4s.9 7.8 4.9 7.8 4.2-1.8 4.1-4.3h-4.7zm18.9-9.7v3.4c.5-2 1.6-4 3.9-3.8h.9v5.4c-4-.2-4.5 3.1-4.5 6.4v7.1h-5.3V84.2h4.9zm23.6 9.3c0 5.3-3.4 9.5-8.8 9.5s-8.7-4.3-8.7-9.6 3.1-9.6 8.7-9.6 8.8 4.3 8.8 9.7zm-11.8-.7c0 2.1 0 6.6 3 6.6s3.1-3.6 3.1-5.9 0-3.2-.6-4.6c-.4-1.2-1.3-1.7-2.5-1.7-2.8 0-3 3.4-3 5.5zm24.8 9.8v-3.2c-.9 2.3-2.7 3.5-5.2 3.5s-3.4-.4-4.5-2.1c-1-1.6-.9-3.3-.9-5.1V84.1h5.3v11.6c0 1.5.1 2.9 2 2.9s2.2-.7 2.7-1.8c.4-.8.3-1.9.3-2.8v-9.9h5.3v18.5h-4.9zM403 84.2v2.7c1-2 2.4-3.1 4.7-3.1s4.2 1.1 5.4 3.2c1.2 2 1.4 4.2 1.4 6.4 0 4.5-1.7 9.6-7 9.6s-3.5-.8-4.2-2.4v8.3H398V84.2h5zm.4 9.9c0 1.2-.1 2.7.5 3.7.5.8 1.4 1.4 2.4 1.4 2.7 0 2.8-4 2.8-5.9s-.1-5.7-2.8-5.7-1.9.6-2.4 1.5c-.5 1-.5 2.1-.5 3.2v1.8zM181.6 45.5l1.3 5.1c6.5-.5 13.9-1.4 21.8-2.6l1.4-6.9c-4.7 1-9.5 2-14.2 2.8-3.5.6-6.9 1.2-10.3 1.6zm30.4-5.7c-.7.2-1.4.3-2.1.5l1.3 6.6c4.2-.8 8.3-1.6 12.6-2.5.2 0 .5-.1.7-.2 1-.3 2-.5 2.9-.8 2.4-.6 4.7-1.3 6.8-2 .5-.1.9-.3 1.4-.4l1.9-7.5c-3.1.9-6.4 1.7-9.8 2.6-5.1 1.2-10.4 2.5-15.7 3.7z"/><path class="st2" d="M245.5 1.8H226l-6.6 31.3-4.8-31.3h-13.4l-4.6 31.4-.3-1.6L190 1.8h-19.8l7.1 27.6 1.9 7.5L181 44c6.8-.6 14.6-1.6 22.7-3 .7-.1 1.5-.3 2.2-.4l1.9-9.4 1.9 8.7c3.3-.6 6.5-1.3 9.8-2 .2 0 .5-.1.7-.2 1-.3 2-.5 2.9-.8 2.4-.6 4.7-1.3 6.8-2 2.7-.8 5.3-1.7 7.6-2.5l1.8-7.2 1.5-5.9 4.5-17.6zm-62.1 50.5l3.5 13.6h14.2l3.4-17.2c-2.8.6-5.7 1.1-8.6 1.6-4.3.8-8.5 1.4-12.6 1.9zm32.8-6c-1.6.4-3.2.7-4.8 1.1l3.5 18.6h14.4l6.1-24.3c-1.2.3-2.4.6-3.7.9-5.1 1.3-10.3 2.5-15.6 3.7z"/><path class="st0" d="M217.1 38.5s.4 0 .9-.2c.4 0 .9-.2 1.5-.4-.7.2-1.2.3-1.6.4-.6.1-.8.2-.8.2z"/><path class="st0" d="M217.1 38.5s.4 0 .9-.2c.4 0 .9-.2 1.5-.4-.7.2-1.2.3-1.6.4-.6.1-.8.2-.8.2z"/><path class="st1" d="M269.3 18c-.1-.3-.4-.6-.7-.8-3.3-2-13.2-2.4-26.7-1.1l-.6 2.5c6.7 0 11.5.6 13.7 1.9.2.2.4.3.5.5.2.3.3.6.3 1 0 1-.9 2.2-2.7 3.4-2.9 2.1-8.1 4.5-15.3 7.1-2.3.8-4.9 1.7-7.6 2.5-2.2.7-17 4.3-20.2 4.9-1.2.2-2.5.5-3.7.7-.7.1-1.5.3-2.2.4-8.1 1.4-15.9 2.4-22.7 3-2.2.2-4.3.3-6.3.4-5.2.3-9.5.2-12.7-.2-1.9 1.3-2.7 2.5-2.6 3.5 6.2-.2 13.8-1 21.9-2.1 3.3-.5 6.8-1 10.3-1.6 4.7-.8 9.5-1.8 14.2-2.8l3.9-.9c.7-.2 1.4-.3 2.1-.5 5.3-1.2 10.5-2.5 15.6-3.7 3.4-.8 6.7-1.7 9.8-2.6 8.4-2.3 15.5-4.7 20.8-7 3.6-1.5 6.5-3 8.4-4.4 2.2-1.6 3.2-3 2.6-4.1zM218 38.3c-.5.1-.8.2-.9.2 0 0 .1 0 .7-.2.4 0 .9-.2 1.6-.4-.6.1-1.1.3-1.5.4zm-59.2-1.1c3.6-2.4 10.1-5.2 18.6-7.9l-.2-.9c-11 2.9-20.4 6.2-26.7 9.1-6.6 3-9.3 5.6-8.3 7.4.2.4.5.7 1 1 1.1.7 2.9 1.2 5.5 1.5 1.4-1 3.4-2.1 6-3.3.8-.4 1.7-.7 2.6-1.1-.6-.3-1-.6-1.2-.9-1-1.2 0-2.8 2.8-4.8zm39.3-13.3l.1-1-3.4 1.1.1.7 3.2-.8zm24.1-4l.3-1.2c-3.3.6-2.9.5-5.1.9l.2 1.2 4.7-.8z"/><path class="st1" d="M220.7 27.1l.2-1.2c-1.1.2-1.4.2-2.5.4l.2 1.1c.9-.1 1.2-.2 2.1-.3zm52.6-2.6c-.1-.3-.4-.5-.7-.7-1.2-.7-3.2-1.3-6-1.6-1.9 1.4-4.7 2.8-8.4 4.4.3.1.5.3.7.4l.5.5c2.4 3-6.5 8.2-23.9 13.6-.4.1-.9.3-1.4.4-2.2.7-18.8 4.7-23 5.4-1.1.2-2.1.4-3.2.6-1.1.2-2.2.4-3.4.6-7.8 1.3-15.3 2.1-21.8 2.6-1.3 0-2.6.2-3.9.2-10.5.5-17.1-.4-18.9-2.3-.3-.3-.4-.6-.5-1-.1-1 .7-2.1 2.6-3.5.2-.1.4-.3.6-.4 3.3-2.2 9-4.7 16.4-7.2l-.2-.8c-8.6 2.3-16.2 4.8-21.9 7.2-.9.4-1.8.8-2.6 1.1-2.6 1.2-4.6 2.3-6 3.3-2.2 1.6-3 3-2.3 4.1 1.3 1.9 7 2.9 16.7 2.6 5.8-.2 12.7-.8 20.2-1.8 4.1-.5 8.3-1.2 12.6-1.9 2.8-.5 5.7-1 8.6-1.6 2.3-.5 4.5-.9 6.8-1.4 1.6-.4 3.2-.7 4.8-1.1 5.3-1.2 10.5-2.5 15.6-3.7 1.2-.3 2.5-.6 3.7-.9 24.7-6.3 40.1-13.3 37.9-17.2zM197 31.3l.1-.6-.8.3.1.6.6-.3z"/><path class="st1" d="M253.1 25.4c1.8-1.3 2.7-2.4 2.7-3.4-4.6.2-9.9.6-15.7 1.3l-.5 2c5.4-.3 10-.3 13.5.1z"/></svg>