<?xml version="1.0" encoding="UTF-8"?>
<svg id="Layer_1" xmlns="http://www.w3.org/2000/svg" version="1.1" viewBox="0 0 332.7 162.1">
  <!-- Generator: Adobe Illustrator 29.5.1, SVG Export Plug-In . SVG Version: 2.1.0 Build 141)  -->
  <defs>
    <style>
      .st0 {
        fill: none;
      }

      .st1 {
        fill: #ee3524;
      }

      .st2 {
        fill: #fff;
      }
    </style>
  </defs>
  <g>
    <path class="st2" d="M100,111l3.3,12.9c16.5-1.3,35.2-3.5,55.3-6.6l3.5-17.5c-11.9,2.5-24.1,5.1-36,7.1-8.9,1.5-17.5,3-26.1,4.1Z"/>
    <path class="st2" d="M177,96.6c-1.8.5-3.5.8-5.3,1.3l3.3,16.7c10.6-2,21-4.1,31.9-6.3.5,0,1.3-.3,1.8-.5,2.5-.8,5.1-1.3,7.4-2,6.1-1.5,11.9-3.3,17.2-5.1,1.3-.3,2.3-.8,3.5-1l4.8-19c-7.9,2.3-16.2,4.3-24.8,6.6-12.9,3-26.4,6.3-39.8,9.4h0Z"/>
    <path class="st2" d="M262,.3h-49.4l-16.7,79.3L183.6.3h-34l-11.7,79.6-.8-4.1L121.3.3h-50.2l18,70,4.8,19h0l4.6,18c17.2-1.5,37-4.1,57.5-7.6,1.8-.3,3.8-.8,5.6-1l4.8-23.8,4.8,22.1c8.4-1.5,16.5-3.3,24.8-5.1.5,0,1.3-.3,1.8-.5,2.5-.8,5.1-1.3,7.4-2,6.1-1.5,11.9-3.3,17.2-5.1,6.8-2,13.4-4.3,19.3-6.3l4.6-18.3,3.8-15h0L261.4,0l.5.3Z"/>
    <path class="st2" d="M104.5,128.3l8.9,34.5h36l8.6-43.6c-7.1,1.5-14.4,2.8-21.8,4.1-10.9,2-21.5,3.5-31.9,4.8l.3.3Z"/>
    <path class="st2" d="M187.7,113.1h0c-4.1,1-8.1,1.8-12.2,2.8l8.9,47.2h36.5l15.5-61.6c-3,.8-6.1,1.5-9.4,2.3-12.9,3.3-26.1,6.3-39.5,9.4h.3Z"/>
  </g>
  <g>
    <g>
      <path class="st0" d="M190,93.3s1,0,2.3-.5c1,0,2.3-.5,3.8-1-1.8.5-3,.8-4.1,1-1.5.3-2,.5-2,.5h0Z"/>
      <g>
        <path class="st0" d="M190,93.3s1,0,2.3-.5c1,0,2.3-.5,3.8-1-1.8.5-3,.8-4.1,1-1.5.3-2,.5-2,.5h0Z"/>
        <path class="st1" d="M322.3,41.3h0c-.3-.8-1-1.5-1.8-2-8.4-5.1-33.5-6.1-67.7-2.8l-1.5,6.3c17,0,29.2,1.5,34.7,4.8.5.5,1,.8,1.3,1.3.5.8.8,1.5.8,2.5,0,2.5-2.3,5.6-6.8,8.6-7.4,5.3-20.5,11.4-38.8,18-5.8,2-12.4,4.3-19.3,6.3-5.6,1.8-43.1,10.9-51.2,12.4-3,.5-6.3,1.3-9.4,1.8-1.8.3-3.8.8-5.6,1-20.5,3.5-40.3,6.1-57.5,7.6-5.6.5-10.9.8-16,1-13.2.8-24.1.5-32.2-.5-4.8,3.3-6.8,6.3-6.6,8.9,15.7-.5,35-2.5,55.5-5.3,8.4-1.3,17.2-2.5,26.1-4.1,11.9-2,24.1-4.6,36-7.1,3.3-.8,6.6-1.5,9.9-2.3,1.8-.5,3.5-.8,5.3-1.3,13.4-3,26.6-6.3,39.5-9.4,8.6-2,17-4.3,24.8-6.6,21.3-5.8,39.3-11.9,52.7-17.7,9.1-3.8,16.5-7.6,21.3-11.2,5.6-4.1,8.1-7.6,6.6-10.4h-.3ZM192.2,92.8c-1.3.3-2,.5-2.3.5,0,0,.3,0,1.8-.5,1,0,2.3-.5,4.1-1-1.5.3-2.8.8-3.8,1h.3Z"/>
        <path class="st1" d="M42.2,90c9.1-6.1,25.6-13.2,47.2-20l-.5-2.3c-27.9,7.4-51.7,15.7-67.7,23.1C4.4,98.4-2.4,104.9,0,109.5H0c.5,1,1.3,1.8,2.5,2.5,2.8,1.8,7.4,3,13.9,3.8,3.5-2.5,8.6-5.3,15.2-8.4,2-1,4.3-1.8,6.6-2.8-1.5-.8-2.5-1.5-3-2.3h0c-2.5-3,0-7.1,7.1-12.2l-.3-.3Z"/>
        <polygon class="st1" points="141.8 56.3 142 53.7 133.4 56.5 133.7 58.3 141.8 56.3"/>
        <path class="st1" d="M202.9,46.1l.8-3c-8.4,1.5-7.4,1.3-12.9,2.3l.5,3,11.9-2-.3-.3Z"/>
      </g>
    </g>
    <g>
      <path class="st1" d="M199.1,64.4l.5-3c-2.8.5-3.5.5-6.3,1l.5,2.8c2.3-.3,3-.5,5.3-.8Z"/>
      <path class="st1" d="M332.4,57.8h0c-.3-.8-1-1.3-1.8-1.8-3-1.8-8.1-3.3-15.2-4.1-4.8,3.5-11.9,7.1-21.3,11.2.8.3,1.3.8,1.8,1,.5.5.8.8,1.3,1.3h0c6.1,7.6-16.5,20.8-60.6,34.5-1,.3-2.3.8-3.5,1-5.6,1.8-47.7,11.9-58.3,13.7-2.8.5-5.3,1-8.1,1.5-2.8.5-5.6,1-8.6,1.5-19.8,3.3-38.8,5.3-55.3,6.6-3.3,0-6.6.5-9.9.5-26.6,1.3-43.3-1-47.9-5.8-.8-.8-1-1.5-1.3-2.5-.3-2.5,1.8-5.3,6.6-8.9.5-.3,1-.8,1.5-1,8.4-5.6,22.8-11.9,41.6-18.3l-.5-2c-21.8,5.8-41.1,12.2-55.5,18.3-2.3,1-4.6,2-6.6,2.8-6.6,3-11.7,5.8-15.2,8.4-5.6,4.1-7.6,7.6-5.8,10.4h0c3.3,4.8,17.7,7.4,42.3,6.6,14.7-.5,32.2-2,51.2-4.6,10.4-1.3,21-3,31.9-4.8,7.1-1.3,14.4-2.5,21.8-4.1,5.8-1.3,11.4-2.3,17.2-3.5,4.1-1,8.1-1.8,12.2-2.8h0c13.4-3,26.6-6.3,39.5-9.4,3-.8,6.3-1.5,9.4-2.3,62.6-16,101.7-33.7,96.1-43.6l1,.3Z"/>
      <polygon class="st1" points="139 75 139.3 73.5 137.2 74.3 137.5 75.8 139 75"/>
      <path class="st1" d="M281.2,60.1c4.6-3.3,6.8-6.1,6.8-8.6-11.7.5-25.1,1.5-39.8,3.3l-1.3,5.1c13.7-.8,25.3-.8,34.2.3Z"/>
    </g>
  </g>
</svg>